<svg width="24" height="24" viewBox="0 0 24 24" fill="none" xmlns="http://www.w3.org/2000/svg">
<path d="M12.2 11.8L10.79 13.21C10.01 13.99 10.01 15.26 10.79 16.04C11.57 16.82 12.84 16.82 13.62 16.04L15.84 13.82C17.4 12.26 17.4 9.72999 15.84 8.15999C14.28 6.59999 11.75 6.59999 10.18 8.15999L7.76 10.58C6.42 11.92 6.42 14.09 7.76 15.43" stroke="#07090F" stroke-width="1.5" stroke-linecap="round" stroke-linejoin="round"/>
<path d="M12 22C17.5228 22 22 17.5228 22 12C22 6.47715 17.5228 2 12 2C6.47715 2 2 6.47715 2 12C2 17.5228 6.47715 22 12 22Z" stroke="#07090F" stroke-width="1.5" stroke-linecap="round" stroke-linejoin="round"/>
</svg>
