<svg width="24" height="24" viewBox="0 0 24 24" fill="none" xmlns="http://www.w3.org/2000/svg">
<g clip-path="url(#clip0_4134_25791)">
<path d="M10.97 2H8.96997C3.96997 2 1.96997 4 1.96997 9V15C1.96997 20 3.96997 22 8.96997 22H14.97C19.97 22 21.97 20 21.97 15V13" stroke="#07090F" stroke-width="1.5" stroke-linecap="round" stroke-linejoin="round"/>
<path d="M21.8799 3.55998C20.6499 6.62998 17.5599 10.81 14.9799 12.88L13.3999 14.14C13.1999 14.29 12.9999 14.41 12.7699 14.5C12.7699 14.35 12.7599 14.2 12.7399 14.04C12.6499 13.37 12.3499 12.74 11.8099 12.21C11.2599 11.66 10.5999 11.35 9.91994 11.26C9.75994 11.25 9.59994 11.24 9.43994 11.25C9.52994 11 9.65994 10.77 9.82994 10.58L11.0899 8.99998C13.1599 6.41998 17.3499 3.30998 20.4099 2.07998C20.8799 1.89998 21.3399 2.03998 21.6299 2.32998C21.9299 2.62998 22.0699 3.08998 21.8799 3.55998Z" stroke="#07090F" stroke-width="1.5" stroke-linecap="round" stroke-linejoin="round"/>
<path d="M12.78 14.49C12.78 15.37 12.44 16.21 11.81 16.85C11.32 17.34 10.66 17.68 9.86997 17.78L7.89997 17.99C6.82997 18.11 5.90997 17.2 6.02997 16.11L6.23997 14.14C6.42997 12.39 7.88997 11.27 9.44997 11.24C9.60997 11.23 9.76997 11.24 9.92997 11.25C10.61 11.34 11.27 11.65 11.82 12.2C12.36 12.74 12.66 13.36 12.75 14.03C12.77 14.19 12.78 14.35 12.78 14.49Z" stroke="#07090F" stroke-width="1.5" stroke-linecap="round" stroke-linejoin="round"/>
<path d="M15.82 11.9799C15.82 9.88994 14.13 8.18994 12.03 8.18994" stroke="#07090F" stroke-width="1.5" stroke-linecap="round" stroke-linejoin="round"/>
</g>
<defs>
<clipPath id="clip0_4134_25791">
<rect width="24" height="24" fill="white"/>
</clipPath>
</defs>
</svg>
