<svg width="24" height="24" viewBox="0 0 24 24" fill="none" xmlns="http://www.w3.org/2000/svg">
<path d="M10.3199 18.97C10.4599 19.08 10.5999 19.18 10.7499 19.29C11.8899 20.12 13.0399 20.78 14.1899 21.27C15.3399 21.76 16.4299 22 17.4499 22C18.1499 22 18.7999 21.87 19.3999 21.62C20.0099 21.37 20.5499 20.98 21.0399 20.44C21.3299 20.12 21.5499 19.78 21.7199 19.42C21.8899 19.06 21.9699 18.69 21.9699 18.33C21.9699 18.05 21.9099 17.8 21.8099 17.55C21.6999 17.3 21.5199 17.09 21.2599 16.91L17.9499 14.56C17.6999 14.39 17.4699 14.26 17.2499 14.17C17.0299 14.08 16.8299 14.04 16.6399 14.04C16.3899 14.04 16.1599 14.11 15.9299 14.25C15.6999 14.37 15.4599 14.56 15.2099 14.81L14.4499 15.56C14.3399 15.67 14.2099 15.73 14.0399 15.73C13.9499 15.73 13.8699 15.72 13.7899 15.69C13.7199 15.66 13.6599 15.63 13.6099 15.61C13.4199 15.51 13.1999 15.37 12.9599 15.19" stroke="#07090F" stroke-width="1.5" stroke-miterlimit="10" stroke-linecap="round" stroke-linejoin="round"/>
<path d="M10.73 13.22C10.21 12.69 9.73 12.16 9.28 11.64C8.84 11.12 8.53 10.69 8.35 10.36C8.33 10.3 8.3 10.24 8.27 10.16C8.25 10.08 8.24 10.01 8.24 9.93C8.24 9.77 8.29 9.64 8.4 9.53L9.16 8.74C9.4 8.5 9.59 8.26 9.72 8.03C9.86 7.8 9.93 7.56 9.93 7.32C9.93 7.13 9.88 6.92 9.79 6.71C9.7 6.49 9.57 6.26 9.39 6.01L7.07 2.74C6.89 2.48 6.66 2.3 6.4 2.18C6.15 2.06 5.87 2 5.59 2C4.85 2 4.15 2.31 3.51 2.94C2.98 3.44 2.6 4 2.36 4.61C2.12 5.21 2 5.86 2 6.54C2 7.58 2.24 8.67 2.72 9.81C3.2 10.94 3.86 12.08 4.68 13.22C5.51 14.36 6.44 15.45 7.47 16.49" stroke="#07090F" stroke-width="1.5" stroke-miterlimit="10" stroke-linecap="round" stroke-linejoin="round"/>
<path d="M22 2L2 22" stroke="#07090F" stroke-width="1.5" stroke-linecap="round" stroke-linejoin="round"/>
</svg>
