<svg width="24" height="24" viewBox="0 0 24 24" fill="none" xmlns="http://www.w3.org/2000/svg">
<path d="M12 9.65991V12.4499L13.4 13.8499" stroke="#07090F" stroke-width="1.5" stroke-linecap="round" stroke-linejoin="round"/>
<path d="M5.5 12C5.5 8.41 8.41 5.5 12 5.5C15.59 5.5 18.5 8.41 18.5 12C18.5 14.08 17.52 15.94 16 17.13H15.99C14.89 17.99 13.51 18.5 12 18.5C10.51 18.5 9.14 18 8.04 17.15H8.03C6.49 15.96 5.5 14.1 5.5 12Z" stroke="#07090F" stroke-width="1.5" stroke-linecap="round" stroke-linejoin="round"/>
<path d="M8.03003 17.1499H8.04003C9.14003 17.9999 10.51 18.4999 12 18.4999C13.51 18.4999 14.89 17.9899 15.99 17.1299H16L15.49 19.5999C15 21.4999 13.9 21.9999 12.55 21.9999H11.46C10.11 21.9999 9.00003 21.4999 8.52003 19.5899L8.03003 17.1499Z" stroke="#07090F" stroke-width="1.5" stroke-linecap="round" stroke-linejoin="round"/>
<path d="M8.03003 6.85H8.04003C9.14003 6 10.51 5.5 12 5.5C13.51 5.5 14.89 6.01 15.99 6.87H16L15.49 4.4C15 2.5 13.9 2 12.55 2H11.46C10.11 2 9.00003 2.5 8.52003 4.41L8.03003 6.85Z" stroke="#07090F" stroke-width="1.5" stroke-linecap="round" stroke-linejoin="round"/>
</svg>
