<svg width="24" height="24" viewBox="0 0 24 24" fill="none" xmlns="http://www.w3.org/2000/svg">
<path d="M20 9.6C20 5.6 18.4 4 14.4 4H9.6C5.6 4 4 5.6 4 9.6V14.4C4 18.4 5.6 20 9.6 20" stroke="#07090F" stroke-width="1.5" stroke-linecap="round" stroke-linejoin="round"/>
<path d="M16.35 8C15.8 7.3 14.88 7 13.5 7H10.5C8 7 7 8 7 10.5V13.5C7 14.88 7.3 15.8 7.99 16.35" stroke="#07090F" stroke-width="1.5" stroke-linecap="round" stroke-linejoin="round"/>
<path d="M8.01001 4V2" stroke="#07090F" stroke-width="1.5" stroke-linecap="round" stroke-linejoin="round"/>
<path d="M12 4V2" stroke="#07090F" stroke-width="1.5" stroke-linecap="round" stroke-linejoin="round"/>
<path d="M16 4V2" stroke="#07090F" stroke-width="1.5" stroke-linecap="round" stroke-linejoin="round"/>
<path d="M20 8H22" stroke="#07090F" stroke-width="1.5" stroke-linecap="round" stroke-linejoin="round"/>
<path d="M8.01001 20V22" stroke="#07090F" stroke-width="1.5" stroke-linecap="round" stroke-linejoin="round"/>
<path d="M2 8H4" stroke="#07090F" stroke-width="1.5" stroke-linecap="round" stroke-linejoin="round"/>
<path d="M2 12H4" stroke="#07090F" stroke-width="1.5" stroke-linecap="round" stroke-linejoin="round"/>
<path d="M2 16H4" stroke="#07090F" stroke-width="1.5" stroke-linecap="round" stroke-linejoin="round"/>
<path d="M16.7101 18.5899C17.5882 18.5899 18.3001 17.878 18.3001 16.9999C18.3001 16.1218 17.5882 15.4099 16.7101 15.4099C15.832 15.4099 15.1201 16.1218 15.1201 16.9999C15.1201 17.878 15.832 18.5899 16.7101 18.5899Z" stroke="#07090F" stroke-width="1.5" stroke-miterlimit="10" stroke-linecap="round" stroke-linejoin="round"/>
<path d="M11.4099 17.46V16.53C11.4099 15.98 11.8599 15.53 12.4099 15.53C13.3699 15.53 13.7599 14.85 13.2799 14.02C12.9999 13.54 13.1699 12.92 13.6499 12.65L14.5599 12.12C14.9799 11.87 15.5199 12.02 15.7699 12.44L15.8299 12.54C16.3099 13.37 17.0899 13.37 17.5699 12.54L17.6299 12.44C17.8799 12.02 18.4199 11.88 18.8399 12.12L19.7499 12.65C20.2299 12.93 20.3999 13.54 20.1199 14.02C19.6399 14.85 20.0299 15.53 20.9899 15.53C21.5399 15.53 21.9899 15.98 21.9899 16.53V17.46C21.9899 18.01 21.5399 18.46 20.9899 18.46C20.0299 18.46 19.6399 19.14 20.1199 19.97C20.3999 20.45 20.2299 21.07 19.7499 21.34L18.8399 21.87C18.4199 22.12 17.8799 21.97 17.6299 21.55L17.5699 21.45C17.0899 20.62 16.3099 20.62 15.8299 21.45L15.7699 21.55C15.5199 21.97 14.9799 22.11 14.5599 21.87L13.6499 21.34C13.1699 21.06 12.9999 20.45 13.2799 19.97C13.7599 19.14 13.3699 18.46 12.4099 18.46C11.8599 18.47 11.4099 18.02 11.4099 17.46Z" stroke="#07090F" stroke-width="1.5" stroke-miterlimit="10" stroke-linecap="round" stroke-linejoin="round"/>
</svg>
