<svg width="24" height="24" viewBox="0 0 24 24" fill="none" xmlns="http://www.w3.org/2000/svg">
<path d="M22 10V15C22 20 20 22 15 22H9C4 22 2 20 2 15V9C2 4 4 2 9 2H14" stroke="#07090F" stroke-width="1.5" stroke-linecap="round" stroke-linejoin="round"/>
<path d="M22 10H18C15 10 14 9 14 6V2L22 10Z" stroke="#07090F" stroke-width="1.5" stroke-linecap="round" stroke-linejoin="round"/>
<path fill-rule="evenodd" clip-rule="evenodd" d="M8.32024 12H10.9702C11.2402 12 11.5802 12.18 11.7202 12.4L12.8502 14.1C13.0802 14.44 13.0302 14.95 12.7402 15.24L10.2802 17.7C9.93024 18.05 9.35024 18.05 9.00024 17.7L6.54024 15.24C6.25024 14.95 6.20024 14.44 6.43024 14.1L7.56024 12.4C7.72024 12.18 8.06024 12 8.32024 12Z" stroke="#07090F" stroke-width="1.5" stroke-miterlimit="10" stroke-linecap="round" stroke-linejoin="round"/>
</svg>
