<svg width="24" height="24" viewBox="0 0 24 24" fill="none" xmlns="http://www.w3.org/2000/svg">
<path d="M9 22H15C20 22 22 20 22 15V9C22 4 20 2 15 2H9C4 2 2 4 2 9V15C2 20 4 22 9 22Z" stroke="#07090F" stroke-width="1.5" stroke-linecap="round" stroke-linejoin="round"/>
<path d="M6.99 15.08L8.92999 17.02C9.56999 17.66 10.63 17.66 11.27 17.02L17.02 11.27C17.66 10.63 17.66 9.57 17.02 8.93L15.08 6.99001C14.44 6.35001 13.38 6.35001 12.74 6.99001L6.99 12.74C6.34 13.38 6.34 14.43 6.99 15.08Z" stroke="#07090F" stroke-width="1.5" stroke-linecap="round" stroke-linejoin="round"/>
<path d="M9.31 10.4199L13.58 14.6899" stroke="#07090F" stroke-width="1.5" stroke-linecap="round" stroke-linejoin="round"/>
</svg>
