<svg width="24" height="24" viewBox="0 0 24 24" fill="none" xmlns="http://www.w3.org/2000/svg">
<path d="M12 14.8799C11.09 14.8799 10.35 14.1399 10.35 13.2299V10.7599C10.35 9.84989 11.09 9.10986 12 9.10986C12.91 9.10986 13.65 9.84989 13.65 10.7599V13.2299C13.65 14.1399 12.91 14.8799 12 14.8799Z" stroke="#07090F" stroke-width="1.5" stroke-linecap="round"/>
<path d="M16.98 13.4702C16.78 16.0502 14.62 18.0702 12 18.0702C9.24 18.0702 7 15.8302 7 13.0702V10.9302C7 8.17018 9.24 5.93018 12 5.93018C14.59 5.93018 16.72 7.90017 16.97 10.4202" stroke="#07090F" stroke-width="1.5" stroke-linecap="round"/>
<path d="M15 2H17C20 2 22 4 22 7V9" stroke="#07090F" stroke-width="1.5" stroke-miterlimit="10" stroke-linecap="round" stroke-linejoin="round"/>
<path d="M2 9V7C2 4 4 2 7 2H9" stroke="#07090F" stroke-width="1.5" stroke-miterlimit="10" stroke-linecap="round" stroke-linejoin="round"/>
<path d="M15 22H17C20 22 22 20 22 17V15" stroke="#07090F" stroke-width="1.5" stroke-miterlimit="10" stroke-linecap="round" stroke-linejoin="round"/>
<path d="M2 15V17C2 20 4 22 7 22H9" stroke="#07090F" stroke-width="1.5" stroke-miterlimit="10" stroke-linecap="round" stroke-linejoin="round"/>
</svg>
