<svg width="24" height="24" viewBox="0 0 24 24" fill="none" xmlns="http://www.w3.org/2000/svg">
<path d="M7.7998 10.2V14.3999" stroke="#07090F" stroke-width="1.5" stroke-linecap="round" stroke-linejoin="round"/>
<path d="M7.95001 9.89999C9.02697 9.89999 9.90002 9.02697 9.90002 7.95001C9.90002 6.87306 9.02697 6 7.95001 6C6.87306 6 6 6.87306 6 7.95001C6 9.02697 6.87306 9.89999 7.95001 9.89999Z" stroke="#07090F" stroke-width="1.5" stroke-linecap="round" stroke-linejoin="round"/>
<path d="M7.79999 17.9999C8.7941 17.9999 9.59998 17.194 9.59998 16.1999C9.59998 15.2058 8.7941 14.3999 7.79999 14.3999C6.80588 14.3999 6 15.2058 6 16.1999C6 17.194 6.80588 17.9999 7.79999 17.9999Z" stroke="#07090F" stroke-width="1.5" stroke-linecap="round" stroke-linejoin="round"/>
<path d="M16.1999 17.9999C17.194 17.9999 17.9999 17.194 17.9999 16.1999C17.9999 15.2058 17.194 14.3999 16.1999 14.3999C15.2058 14.3999 14.3999 15.2058 14.3999 16.1999C14.3999 17.194 15.2058 17.9999 16.1999 17.9999Z" stroke="#07090F" stroke-width="1.5" stroke-linecap="round" stroke-linejoin="round"/>
<path d="M7.87988 10.2C8.14988 11.25 9.10987 12.0299 10.2399 12.0199L12.2999 12.0099C13.8699 11.9999 15.2099 13.01 15.6999 14.42" stroke="#07090F" stroke-width="1.5" stroke-linecap="round" stroke-linejoin="round"/>
<path d="M9 22H15C20 22 22 20 22 15V9C22 4 20 2 15 2H9C4 2 2 4 2 9V15C2 20 4 22 9 22Z" stroke="#07090F" stroke-width="1.5" stroke-linecap="round" stroke-linejoin="round"/>
</svg>
