<svg width="24" height="24" viewBox="0 0 24 24" fill="none" xmlns="http://www.w3.org/2000/svg">
<path d="M9 22H15C20 22 22 20 22 15V9C22 4 20 2 15 2H9C4 2 2 4 2 9V15C2 20 4 22 9 22Z" stroke="#07090F" stroke-width="1.5" stroke-linecap="round" stroke-linejoin="round"/>
<path d="M16.28 13.6101C15.15 14.7401 13.53 15.0901 12.1 14.6401L9.50995 17.2201C9.32995 17.4101 8.95995 17.5301 8.68995 17.4901L7.48995 17.3301C7.08995 17.2801 6.72995 16.9001 6.66995 16.5101L6.50995 15.3101C6.46995 15.0501 6.59995 14.6801 6.77995 14.4901L9.35995 11.9101C8.91995 10.4801 9.25995 8.86014 10.39 7.73014C12.01 6.11014 14.65 6.11014 16.28 7.73014C17.9 9.34014 17.9 11.9801 16.28 13.6101Z" stroke="#07090F" stroke-width="1.5" stroke-miterlimit="10" stroke-linecap="round" stroke-linejoin="round"/>
<path d="M10.45 16.2799L9.59998 15.4199" stroke="#07090F" stroke-width="1.5" stroke-miterlimit="10" stroke-linecap="round" stroke-linejoin="round"/>
<path d="M13.3945 10.7002H13.4035" stroke="#07090F" stroke-width="2" stroke-linecap="round" stroke-linejoin="round"/>
</svg>
