<svg width="24" height="24" viewBox="0 0 24 24" fill="none" xmlns="http://www.w3.org/2000/svg">
<path d="M7 12.1599H9.67999C10.39 12.1599 10.87 12.6999 10.87 13.3499V14.84C10.87 15.49 10.39 16.03 9.67999 16.03H8.19C7.54 16.03 7 15.49 7 14.84V12.1599Z" stroke="#07090F" stroke-width="1.5" stroke-linecap="round" stroke-linejoin="round"/>
<path d="M7 12.16C7 9.36997 7.52 8.89997 9.09 7.96997" stroke="#07090F" stroke-width="1.5" stroke-linecap="round" stroke-linejoin="round"/>
<path d="M13.14 12.1599H15.82C16.53 12.1599 17.01 12.6999 17.01 13.3499V14.84C17.01 15.49 16.53 16.03 15.82 16.03H14.33C13.68 16.03 13.14 15.49 13.14 14.84V12.1599Z" stroke="#07090F" stroke-width="1.5" stroke-linecap="round" stroke-linejoin="round"/>
<path d="M13.14 12.16C13.14 9.36997 13.66 8.89997 15.23 7.96997" stroke="#07090F" stroke-width="1.5" stroke-linecap="round" stroke-linejoin="round"/>
<path d="M12 22C17.5228 22 22 17.5228 22 12C22 6.47715 17.5228 2 12 2C6.47715 2 2 6.47715 2 12C2 17.5228 6.47715 22 12 22Z" stroke="#07090F" stroke-width="1.5" stroke-linecap="round" stroke-linejoin="round"/>
</svg>
