<svg width="24" height="24" viewBox="0 0 24 24" fill="none" xmlns="http://www.w3.org/2000/svg">
<path d="M22 11.5V15.5C22 19 20 20.5 17 20.5H7C4 20.5 2 19 2 15.5V8.5C2 5 4 3.5 7 3.5H12" stroke="#07090F" stroke-width="1.5" stroke-miterlimit="10" stroke-linecap="round" stroke-linejoin="round"/>
<path d="M7 9L10.13 11.5C11.16 12.32 12.85 12.32 13.88 11.5" stroke="#07090F" stroke-width="1.5" stroke-miterlimit="10" stroke-linecap="round" stroke-linejoin="round"/>
<path d="M19.4802 2.81994L19.7602 3.38993C19.9002 3.66993 20.2502 3.92994 20.5602 3.98994L20.9402 4.04994C22.0802 4.23994 22.3502 5.07994 21.5302 5.90994L21.1802 6.25993C20.9502 6.49993 20.8202 6.95993 20.8902 7.27993L20.9402 7.48994C21.2502 8.86994 20.5202 9.39993 19.3202 8.67993L19.0602 8.52993C18.7502 8.34993 18.2502 8.34993 17.9402 8.52993L17.6802 8.67993C16.4702 9.40993 15.7402 8.86994 16.0602 7.48994L16.1102 7.27993C16.1802 6.95993 16.0502 6.49993 15.8202 6.25993L15.4702 5.90994C14.6502 5.07994 14.9202 4.23994 16.0602 4.04994L16.4402 3.98994C16.7402 3.93994 17.1002 3.66993 17.2402 3.38993L17.5202 2.81994C18.0602 1.72994 18.9402 1.72994 19.4802 2.81994Z" stroke="#07090F" stroke-width="1.5" stroke-linecap="round" stroke-linejoin="round"/>
</svg>
