<svg width="24" height="24" viewBox="0 0 24 24" fill="none" xmlns="http://www.w3.org/2000/svg">
<path d="M20.05 10.6301L15.38 8.62006L14.34 8.18006C14.18 8.10006 14.04 7.89006 14.04 7.71006V4.65006C14.04 3.69006 13.33 2.55006 12.47 2.11006C12.17 1.96006 11.81 1.96006 11.51 2.11006C10.66 2.55006 9.95 3.70006 9.95 4.66006V7.72006C9.95 7.90006 9.81 8.11006 9.65 8.19006L3.95 10.6401C3.32 10.9001 2.81 11.6901 2.81 12.3701V13.6901C2.81 14.5401 3.45 14.9601 4.24 14.6201L9.25 12.4601C9.64 12.2901 9.96 12.5001 9.96 12.9301V14.0401V15.8401C9.96 16.0701 9.83 16.4001 9.67 16.5601L7.35 18.8901C7.11 19.1301 7 19.6001 7.11 19.9401L7.56 21.3001C7.74 21.8901 8.41 22.1701 8.96 21.8901L11.34 19.8901C11.7 19.5801 12.29 19.5801 12.65 19.8901L15.03 21.8901C15.58 22.1601 16.25 21.8901 16.45 21.3001L16.9 19.9401C17.01 19.6101 16.9 19.1301 16.66 18.8901L14.34 16.5601C14.17 16.4001 14.04 16.0701 14.04 15.8401V12.9301C14.04 12.5001 14.35 12.3001 14.75 12.4601L19.76 14.6201C20.55 14.9601 21.19 14.5401 21.19 13.6901V12.3701C21.19 11.6901 20.68 10.9001 20.05 10.6301Z" fill="#07090F"/>
</svg>
