<svg width="24" height="24" viewBox="0 0 24 24" fill="none" xmlns="http://www.w3.org/2000/svg">
<path d="M20.2102 7.81994L12.5102 12.2799C12.2002 12.4599 11.8102 12.4599 11.4902 12.2799L3.79021 7.81994C3.24021 7.49994 3.10021 6.74994 3.52021 6.27994C3.81021 5.94994 4.14021 5.67994 4.49021 5.48994L9.91021 2.48994C11.0702 1.83994 12.9502 1.83994 14.1102 2.48994L19.5302 5.48994C19.8802 5.67994 20.2102 5.95994 20.5002 6.27994C20.9002 6.74994 20.7602 7.49994 20.2102 7.81994Z" fill="#07090F"/>
<path d="M11.43 14.1399V20.9599C11.43 21.7199 10.66 22.2199 9.97998 21.8899C7.91998 20.8799 4.44998 18.9899 4.44998 18.9899C3.22998 18.2999 2.22998 16.5599 2.22998 15.1299V9.96988C2.22998 9.17988 3.05998 8.67988 3.73998 9.06988L10.93 13.2399C11.23 13.4299 11.43 13.7699 11.43 14.1399Z" fill="#07090F"/>
<path d="M12.5698 14.1399V20.9599C12.5698 21.7199 13.3398 22.2199 14.0198 21.8899C16.0798 20.8799 19.5498 18.9899 19.5498 18.9899C20.7698 18.2999 21.7698 16.5599 21.7698 15.1299V9.96988C21.7698 9.17988 20.9398 8.67988 20.2598 9.06988L13.0698 13.2399C12.7698 13.4299 12.5698 13.7699 12.5698 14.1399Z" fill="#07090F"/>
</svg>
