<svg width="24" height="24" viewBox="0 0 24 24" fill="none" xmlns="http://www.w3.org/2000/svg">
<path d="M21.75 8.00008C21.75 8.41008 21.41 8.75008 21 8.75008H3C2.59 8.75008 2.25 8.41008 2.25 8.00008C2.25 7.59008 2.59 7.25008 3 7.25008H4.02L4.4 5.44008C4.76 3.69008 5.51 2.08008 8.49 2.08008H15.51C18.49 2.08008 19.24 3.69008 19.6 5.44008L19.98 7.25008H21C21.41 7.25008 21.75 7.59008 21.75 8.00008Z" fill="#07090F"/>
<path d="M22.18 13.66C22.03 12.01 21.59 10.25 18.38 10.25H5.61999C2.40999 10.25 1.97999 12.01 1.81999 13.66L1.25999 19.75C1.18999 20.51 1.43999 21.27 1.95999 21.84C2.48999 22.42 3.23999 22.75 4.03999 22.75H5.91999C7.53999 22.75 7.84999 21.82 8.04999 21.21L8.24999 20.61C8.47999 19.92 8.53999 19.75 9.43999 19.75H14.56C15.46 19.75 15.49 19.85 15.75 20.61L15.95 21.21C16.15 21.82 16.46 22.75 18.08 22.75H19.96C20.75 22.75 21.51 22.42 22.04 21.84C22.56 21.27 22.81 20.51 22.74 19.75L22.18 13.66ZM8.99999 15.75H5.99999C5.58999 15.75 5.24999 15.41 5.24999 15C5.24999 14.59 5.58999 14.25 5.99999 14.25H8.99999C9.40999 14.25 9.74999 14.59 9.74999 15C9.74999 15.41 9.40999 15.75 8.99999 15.75ZM18 15.75H15C14.59 15.75 14.25 15.41 14.25 15C14.25 14.59 14.59 14.25 15 14.25H18C18.41 14.25 18.75 14.59 18.75 15C18.75 15.41 18.41 15.75 18 15.75Z" fill="#07090F"/>
</svg>
