<svg width="24" height="24" viewBox="0 0 24 24" fill="none" xmlns="http://www.w3.org/2000/svg">
<path d="M19.27 3.65002L14.17 8.75002H3.2C2.54 8.75002 2 8.21002 2 7.55002V7.54002C2 5.25002 3.85 3.40002 6.14 3.40002H17.85C18.35 3.40002 18.83 3.49002 19.27 3.65002Z" fill="#07090F"/>
<path d="M12.67 10.25L7.17 15.75H6C5.59 15.75 5.25 16.09 5.25 16.5C5.25 16.81 5.45 17.09 5.73 17.19L3.38 19.54C2.53 18.79 2 17.69 2 16.46V11.45C2 10.79 2.54 10.25 3.2 10.25H12.67Z" fill="#07090F"/>
<path d="M22.0002 11V16.46C22.0002 18.75 20.1502 20.6 17.8602 20.6H8.81016C7.92016 20.6 7.47016 19.52 8.10016 18.89L9.45016 17.54C9.64016 17.35 9.89016 17.25 10.1602 17.25H14.5002C14.9102 17.25 15.2502 16.91 15.2502 16.5C15.2502 16.09 14.9102 15.75 14.5002 15.75H13.6602C12.7702 15.75 12.3202 14.67 12.9502 14.04L16.4102 10.58C16.7902 10.21 17.3002 10 17.8302 10H21.0002C21.5502 10 22.0002 10.45 22.0002 11Z" fill="#07090F"/>
<path d="M21.7699 2.23C21.4699 1.93 20.9799 1.93 20.6799 2.23L2.22988 20.69C1.92988 20.99 1.92988 21.48 2.22988 21.78C2.37988 21.92 2.56988 22 2.76988 22C2.96988 22 3.15988 21.92 3.30988 21.77L21.7699 3.31C22.0799 3.01 22.0799 2.53 21.7699 2.23Z" fill="#07090F"/>
<path d="M21.7701 3.31L20.6101 4.47L16.3301 8.75L3.31006 21.77C3.16006 21.92 2.97006 22 2.77006 22C2.57006 22 2.38006 21.92 2.23006 21.77C1.92006 21.47 1.92006 20.99 2.23006 20.69L3.38006 19.54L5.73006 17.19L19.2701 3.65L20.6901 2.23C20.9901 1.92 21.4701 1.92 21.7701 2.23C22.0801 2.53 22.0801 3.01 21.7701 3.31Z" fill="#07090F"/>
<path d="M22.0001 7.41002C22.0001 6.52002 20.9201 6.07002 20.2901 6.70002L20.0001 7.00002L19.7101 7.29002C19.0801 7.92002 19.5201 9.00002 20.4101 9.00002H21.0001C21.5501 9.00002 22.0001 8.55002 22.0001 8.00002V7.41002Z" fill="#07090F"/>
</svg>
