<svg width="24" height="24" viewBox="0 0 24 24" fill="none" xmlns="http://www.w3.org/2000/svg">
<path d="M18.6902 11.53C18.1202 11.38 17.4502 11.3 16.6502 11.3C15.5402 11.3 15.1302 11.57 14.5602 12C14.5302 12.02 14.5002 12.05 14.4702 12.08L13.5202 13.09C12.7202 13.93 11.2802 13.94 10.4802 13.08L9.53018 12.08C9.50017 12.05 9.47018 12.02 9.44018 12C8.87017 11.57 8.46018 11.3 7.35018 11.3C6.55018 11.3 5.88018 11.38 5.31018 11.53C2.93018 12.17 2.93018 14.06 2.93018 15.72V16.65C2.93018 19.16 2.93018 22 8.28018 22H15.7202C19.2702 22 21.0702 20.2 21.0702 16.65V15.72C21.0702 14.06 21.0702 12.17 18.6902 11.53ZM14.3302 18.4H9.67018C9.29018 18.4 8.98018 18.09 8.98018 17.7C8.98018 17.31 9.29018 17 9.67018 17H14.3302C14.7102 17 15.0202 17.31 15.0202 17.7C15.0202 18.09 14.7102 18.4 14.3302 18.4Z" fill="#07090F"/>
<path d="M12.6701 2.67C12.6701 2.3 12.3701 2 12.0001 2C11.6301 2 11.3301 2.3 11.3301 2.67V4H12.6801V2.67H12.6701Z" fill="#07090F"/>
<path d="M19.21 8.42V10.12C19.17 10.1 19.12 10.09 19.08 10.08H19.07C18.36 9.89 17.57 9.8 16.65 9.8C15.11 9.8 14.38 10.25 13.72 10.75C13.58 10.85 13.48 10.95 13.38 11.05L12.43 12.06C12.33 12.16 12.17 12.22 12 12.22C11.92 12.22 11.72 12.21 11.57 12.05L10.59 11.02C10.49 10.91 10.37 10.82 10.34 10.8C9.62004 10.25 8.89004 9.8 7.35004 9.8C6.43004 9.8 5.64004 9.89 4.92004 10.08C4.88004 10.09 4.83004 10.1 4.79004 10.12V8.42C4.79004 6.35 4.79004 4 9.21004 4H11.33V7.45L10.68 6.8C10.41 6.53 9.99004 6.53 9.72004 6.8C9.46004 7.06 9.46004 7.49 9.72004 7.75L11.52 9.55C11.53 9.56 11.54 9.56 11.54 9.57C11.6 9.62 11.67 9.67 11.74 9.7C11.83 9.73 11.91 9.75 12 9.75C12.09 9.75 12.17 9.73 12.26 9.7C12.34 9.67 12.41 9.62 12.48 9.55L14.28 7.75C14.54 7.49 14.54 7.06 14.28 6.8C14.01 6.53 13.59 6.53 13.32 6.8L12.67 7.45V4H14.79C19.21 4 19.21 6.35 19.21 8.42Z" fill="#07090F"/>
</svg>
