<svg width="24" height="24" viewBox="0 0 24 24" fill="none" xmlns="http://www.w3.org/2000/svg">
<path d="M21.03 22H13.99C13.57 22 13.24 21.66 13.24 21.25C13.24 20.84 13.58 20.5 13.99 20.5H21.03C21.45 20.5 21.78 20.84 21.78 21.25C21.78 21.66 21.45 22 21.03 22Z" fill="#07090F"/>
<path d="M13.64 16.6901C14.03 17.0801 14.03 17.7101 13.64 18.1101L10.66 21.0901C9.55 22.2001 7.77 22.2601 6.59 21.2701C6.52 21.2101 6.46 21.1501 6.4 21.0901L5.53 20.2201L3.74 18.4301L2.88 17.5701C2.81 17.5001 2.75 17.4301 2.69 17.3601C1.71 16.1801 1.78 14.4201 2.88 13.3201L5.86 10.3401C6.25 9.95011 6.88 9.95011 7.27 10.3401L13.64 16.6901Z" fill="#07090F"/>
<path d="M21.12 10.6399L16.12 15.6399C15.73 16.0299 15.1 16.0299 14.71 15.6399L8.33999 9.28994C7.94999 8.89994 7.94999 8.26994 8.33999 7.86994L13.34 2.87994C14.51 1.70994 16.43 1.70994 17.6 2.87994L21.12 6.38994C22.29 7.55994 22.29 9.46994 21.12 10.6399Z" fill="#07090F"/>
</svg>
