<svg width="24" height="24" viewBox="0 0 24 24" fill="none" xmlns="http://www.w3.org/2000/svg">
<path d="M15.41 18.59C15.01 18.59 14.68 18.26 14.68 17.86C14.68 17.46 15.01 17.13 15.41 17.13C18.23 17.13 20.53 14.83 20.53 12.01C20.53 9.19004 18.23 6.89004 15.41 6.89004C12.59 6.89004 10.29 9.19004 10.29 12.01C10.29 12.41 9.95996 12.74 9.55996 12.74C9.15996 12.74 8.82996 12.41 8.82996 12.01C8.82996 8.38004 11.78 5.42004 15.42 5.42004C19.06 5.42004 22 8.37004 22 12C22 15.63 19.05 18.59 15.41 18.59Z" fill="#07090F"/>
<path d="M8.59 5.41003C8.99 5.41003 9.32 5.74003 9.32 6.14003C9.32 6.54003 8.99 6.87003 8.59 6.87003C5.77 6.87003 3.47 9.17003 3.47 11.99C3.47 14.81 5.77 17.11 8.59 17.11C11.41 17.11 13.71 14.81 13.71 11.99C13.71 11.59 14.04 11.26 14.44 11.26C14.84 11.26 15.17 11.59 15.17 11.99C15.17 15.62 12.22 18.58 8.58 18.58C4.94 18.58 2 15.63 2 12C2 8.37003 4.95 5.41003 8.59 5.41003Z" fill="#07090F"/>
</svg>
