<svg width="24" height="24" viewBox="0 0 24 24" fill="none" xmlns="http://www.w3.org/2000/svg">
<path d="M19.5 7.49988L18.01 8.98988L15.01 5.98988L16.5 4.49988C16.92 4.07988 17.46 3.87988 18 3.87988C18.54 3.87988 19.08 4.07988 19.5 4.49988C20.33 5.32988 20.33 6.66988 19.5 7.49988Z" fill="#07090F"/>
<path d="M17.31 9.69995L6.5 20.5C5.67 21.33 4.33 21.33 3.5 20.5C2.67 19.67 2.67 18.33 3.5 17.5L14.31 6.69995L17.31 9.69995Z" fill="#07090F"/>
<path d="M9.94999 3.50002L10.36 2.11002C10.4 1.98002 10.36 1.84002 10.27 1.74002C10.18 1.64002 10.02 1.60002 9.88999 1.64002L8.49999 2.05002L7.10999 1.64002C6.97999 1.60002 6.83999 1.64002 6.73999 1.73002C6.63999 1.83002 6.60999 1.97002 6.64999 2.10002L7.04999 3.50002L6.63999 4.89002C6.59999 5.02002 6.63999 5.16002 6.72999 5.26002C6.82999 5.36002 6.96999 5.39002 7.09999 5.35002L8.49999 4.95002L9.88999 5.36002C9.92999 5.37002 9.95999 5.38002 9.99999 5.38002C10.1 5.38002 10.19 5.34002 10.27 5.27002C10.37 5.17002 10.4 5.03002 10.36 4.90002L9.94999 3.50002Z" fill="#07090F"/>
<path d="M5.94999 9.50002L6.35999 8.11002C6.39999 7.98002 6.35999 7.84002 6.26999 7.74002C6.16999 7.64002 6.02999 7.61002 5.89999 7.65002L4.49999 8.05002L3.10999 7.64002C2.97999 7.60002 2.83999 7.64002 2.73999 7.73002C2.63999 7.83002 2.60999 7.97002 2.64999 8.10002L3.04999 9.50002L2.63999 10.89C2.59999 11.02 2.63999 11.16 2.72999 11.26C2.82999 11.36 2.96999 11.39 3.09999 11.35L4.48999 10.94L5.87999 11.35C5.90999 11.36 5.94999 11.36 5.98999 11.36C6.08999 11.36 6.17999 11.32 6.25999 11.25C6.35999 11.15 6.38999 11.01 6.34999 10.88L5.94999 9.50002Z" fill="#07090F"/>
<path d="M20.95 14.5L21.36 13.11C21.4 12.98 21.36 12.84 21.27 12.74C21.17 12.64 21.03 12.61 20.9 12.65L19.51 13.06L18.12 12.65C17.99 12.61 17.85 12.65 17.75 12.74C17.65 12.84 17.62 12.98 17.66 13.11L18.07 14.5L17.66 15.89C17.62 16.02 17.66 16.16 17.75 16.26C17.85 16.36 17.99 16.39 18.12 16.35L19.51 15.94L20.9 16.35C20.93 16.36 20.97 16.36 21.01 16.36C21.11 16.36 21.2 16.32 21.28 16.25C21.38 16.15 21.41 16.01 21.37 15.88L20.95 14.5Z" fill="#07090F"/>
</svg>
