<svg width="24" height="24" viewBox="0 0 24 24" fill="none" xmlns="http://www.w3.org/2000/svg">
<path d="M20.8999 9.85L21.4899 19.74C21.5099 20.01 21.3799 20.19 21.3099 20.27C21.2299 20.36 21.0599 20.5 20.7799 20.5H18.0499L20.2099 9.85H20.8999ZM21.9999 6L21.9899 6.02C22.0099 6.26 21.9899 6.51 21.9299 6.76L14.5599 20.29C14.3199 21.3 13.4199 22 12.3799 22H20.7799C22.0699 22 23.0899 20.91 22.9899 19.62L21.9999 6Z" fill="#07090F"/>
<path d="M11.4502 2.2399C11.5502 1.8399 11.3002 1.4299 10.9002 1.3299C10.5002 1.2399 10.0902 1.4799 9.99023 1.8799L9.49023 3.9499H11.0302L11.4502 2.2399Z" fill="#07090F"/>
<path d="M18.0499 2.21005C18.1399 1.80005 17.8799 1.41005 17.4699 1.32005C17.0699 1.23005 16.6699 1.49005 16.5799 1.90005L16.1299 3.97005H17.6699L18.0499 2.21005Z" fill="#07090F"/>
<path d="M21.8202 5.32994C21.4902 4.52994 20.7102 3.95994 19.7502 3.95994H17.6702L17.1102 6.54994C17.0302 6.89994 16.7202 7.13994 16.3802 7.13994C16.3302 7.13994 16.2702 7.13994 16.2202 7.11994C15.8202 7.02994 15.5602 6.62994 15.6402 6.22994L16.1302 3.94994H11.0302L10.4002 6.54994C10.3202 6.88994 10.0102 7.11994 9.67024 7.11994C9.61024 7.11994 9.55024 7.10994 9.49024 7.09994C9.09024 6.99994 8.84024 6.59994 8.94024 6.18994L9.48024 3.93994H7.45024C6.47024 3.93994 5.60024 4.57994 5.31024 5.51994L1.10024 19.0699C0.660243 20.5199 1.73024 21.9999 3.24024 21.9999H16.3802C17.4202 21.9999 18.3202 21.2999 18.5602 20.2899L21.9302 6.75994C21.9902 6.50994 22.0102 6.25994 21.9902 6.01994C21.9702 5.77994 21.9202 5.53994 21.8202 5.32994ZM14.7002 16.7499H6.70024C6.29024 16.7499 5.95024 16.4099 5.95024 15.9999C5.95024 15.5899 6.29024 15.2499 6.70024 15.2499H14.7002C15.1102 15.2499 15.4502 15.5899 15.4502 15.9999C15.4502 16.4099 15.1102 16.7499 14.7002 16.7499ZM15.7002 12.7499H7.70024C7.29024 12.7499 6.95024 12.4099 6.95024 11.9999C6.95024 11.5899 7.29024 11.2499 7.70024 11.2499H15.7002C16.1102 11.2499 16.4502 11.5899 16.4502 11.9999C16.4502 12.4099 16.1102 12.7499 15.7002 12.7499Z" fill="#07090F"/>
</svg>
