<svg width="24" height="24" viewBox="0 0 24 24" fill="none" xmlns="http://www.w3.org/2000/svg">
<path d="M14.8399 10.9001L20.4999 7.11008C21.0699 6.73008 21.2199 5.95008 20.8399 5.39008L19.0199 2.68008C18.6399 2.11008 17.8599 1.96008 17.2999 2.34008L11.6399 6.13008L14.8399 10.9001Z" fill="#07090F"/>
<path d="M14.5199 10.4201L12.7599 11.6001L10.0899 13.3901L9.73993 13.6201L9.57993 13.3801L7.33993 10.0401L7.17993 9.8001L11.9599 6.6001L14.5199 10.4201Z" fill="#07090F"/>
<path d="M5.6401 16.02L9.5901 13.38L7.3501 10.04L3.4001 12.68C2.9401 12.99 2.8201 13.61 3.1301 14.07L4.2601 15.75C4.5601 16.21 5.1801 16.33 5.6401 16.02Z" fill="#07090F"/>
<path d="M16.5599 21.8101C16.4599 21.8501 16.3499 21.8801 16.2499 21.8801C15.9599 21.8801 15.6899 21.7101 15.5599 21.4301L11.8299 13.1901L8.0499 21.4401C7.9199 21.7101 7.6499 21.8801 7.3599 21.8801C7.2599 21.8801 7.1499 21.8501 7.0499 21.8101C6.6799 21.6301 6.5099 21.1901 6.6799 20.8101L10.0899 13.3901L12.7599 11.6001L16.9299 20.8201C17.0999 21.1901 16.9299 21.6401 16.5599 21.8101Z" fill="#07090F"/>
</svg>
