<svg width="24" height="24" viewBox="0 0 24 24" fill="none" xmlns="http://www.w3.org/2000/svg">
<path d="M21 22.75H3C2.59 22.75 2.25 22.41 2.25 22C2.25 21.59 2.59 21.25 3 21.25H21C21.41 21.25 21.75 21.59 21.75 22C21.75 22.41 21.41 22.75 21 22.75Z" fill="#07090F"/>
<path d="M21 2.75H3C2.59 2.75 2.25 2.41 2.25 2C2.25 1.59 2.59 1.25 3 1.25H21C21.41 1.25 21.75 1.59 21.75 2C21.75 2.41 21.41 2.75 21 2.75Z" fill="#07090F"/>
<path d="M14.3 15.3599L12.75 16.9099V6.6999L14.3 8.2499C14.45 8.3999 14.64 8.4699 14.83 8.4699C15.02 8.4699 15.21 8.3999 15.36 8.2499C15.65 7.9599 15.65 7.4799 15.36 7.1899L12.53 4.3599C12.25 4.0799 11.75 4.0799 11.47 4.3599L8.63999 7.1899C8.34999 7.4799 8.34999 7.9599 8.63999 8.2499C8.92999 8.5399 9.40998 8.5399 9.69998 8.2499L11.25 6.6999V16.9099L9.69998 15.3599C9.40998 15.0699 8.92999 15.0699 8.63999 15.3599C8.34999 15.6499 8.34999 16.1299 8.63999 16.4199L11.47 19.2499C11.61 19.3899 11.8 19.4699 12 19.4699C12.2 19.4699 12.39 19.3899 12.53 19.2499L15.36 16.4199C15.65 16.1299 15.65 15.6499 15.36 15.3599C15.07 15.0699 14.59 15.0699 14.3 15.3599Z" fill="#07090F"/>
</svg>
