<svg width="24" height="24" viewBox="0 0 24 24" fill="none" xmlns="http://www.w3.org/2000/svg">
<path d="M13.49 13.38H11C10.7 13.38 10.46 13.62 10.46 13.92C10.46 14.22 10.7 14.46 11 14.46H13.49C13.79 14.46 14.03 14.22 14.03 13.92C14.03 13.62 13.79 13.38 13.49 13.38Z" fill="#07090F"/>
<path d="M9.4399 13.38H8.1899C7.8899 13.38 7.6499 13.62 7.6499 13.92C7.6499 14.22 7.8899 14.46 8.1899 14.46H9.4399C9.7399 14.46 9.9799 14.22 9.9799 13.92C9.9799 13.62 9.7399 13.38 9.4399 13.38Z" fill="#07090F"/>
<path d="M18.5398 4.22L13.0398 2.16C12.4698 1.95 11.5398 1.95 10.9698 2.16L5.4698 4.22C4.4098 4.62 3.5498 5.86 3.5498 6.99V15.09C3.5498 15.9 4.0798 16.97 4.7298 17.45L10.2298 21.56C11.1998 22.29 12.7898 22.29 13.7598 21.56L19.2598 17.45C19.9098 16.96 20.4398 15.9 20.4398 15.09V6.99C20.4498 5.86 19.5898 4.62 18.5398 4.22ZM18.1698 13.65C18.1498 15.72 17.5798 16.24 15.4298 16.24H8.5798C6.3898 16.24 5.8398 15.7 5.8398 13.53V11.2C5.8398 10.92 6.0598 10.7 6.3398 10.7H17.6698C17.9498 10.7 18.1698 10.92 18.1698 11.2V13.65ZM18.1698 9.11C18.1698 9.39 17.9498 9.61 17.6698 9.61H6.3398C6.0598 9.61 5.8398 9.39 5.8398 9.11V8.47C5.8398 6.51 6.2998 5.88 8.0098 5.77C8.1898 5.77 8.3798 5.76 8.5798 5.76H15.4298C17.6198 5.76 18.1698 6.3 18.1698 8.47V9.11Z" fill="#07090F"/>
</svg>
