<svg width="24" height="24" viewBox="0 0 24 24" fill="none" xmlns="http://www.w3.org/2000/svg">
<path d="M2 7.81003V16.19C2 17.68 2.36 18.92 3.05 19.87C3.34 20.29 3.71 20.66 4.13 20.95C4.95 21.55 5.99 21.9 7.22 21.98V2.03003C3.94 2.24003 2 4.37003 2 7.81003Z" fill="#07090F"/>
<path d="M20.9502 4.13C20.6602 3.71 20.2902 3.34 19.8702 3.05C18.9202 2.36 17.6802 2 16.1902 2H8.72021V22H16.1902C19.8302 22 22.0002 19.83 22.0002 16.19V7.81C22.0002 6.32 21.6402 5.08 20.9502 4.13ZM15.5002 14.03C15.7902 14.32 15.7902 14.8 15.5002 15.09C15.3502 15.24 15.1602 15.31 14.9702 15.31C14.7802 15.31 14.5902 15.24 14.4402 15.09L11.8802 12.53C11.5902 12.24 11.5902 11.76 11.8802 11.47L14.4402 8.91C14.7302 8.62 15.2102 8.62 15.5002 8.91C15.7902 9.2 15.7902 9.68 15.5002 9.97L13.4802 12L15.5002 14.03Z" fill="#07090F"/>
</svg>
