<svg width="24" height="24" viewBox="0 0 24 24" fill="none" xmlns="http://www.w3.org/2000/svg">
<path d="M18.71 9.49C18.61 9.49 18.51 9.47001 18.41 9.43001C18.03 9.26 17.86 8.82 18.02 8.44C18.21 8.01 18.1 7.38 17.75 6.86C17.4 6.33 16.87 5.97 16.39 6C15.95 6 15.64 5.67 15.63 5.26C15.63 4.84 15.96 4.51 16.37 4.5C17.4 4.48 18.37 5.07 19 6.02C19.64 6.98 19.79 8.13 19.4 9.03C19.28 9.32 19 9.49 18.71 9.49Z" fill="#07090F"/>
<path d="M21.82 10.4801C21.75 10.4801 21.69 10.4701 21.62 10.4501C21.22 10.3401 20.99 9.9301 21.1 9.5301C21.48 8.1701 21.16 6.5501 20.25 5.1901C19.34 3.8301 17.96 2.9201 16.55 2.7501C16.14 2.7001 15.85 2.3301 15.9 1.9201C15.95 1.5101 16.33 1.2101 16.73 1.2701C18.56 1.4901 20.34 2.6501 21.49 4.3701C22.64 6.0901 23.03 8.1701 22.54 9.9501C22.45 10.2601 22.15 10.4801 21.82 10.4801Z" fill="#07090F"/>
<path d="M17.12 11.78C17.12 12.08 16.87 12.33 16.57 12.33H3.42997C3.12997 12.33 2.87997 12.08 2.87997 11.78C2.87997 11.48 3.12997 11.23 3.42997 11.23H4.16997L4.44997 9.90996C4.70997 8.62996 5.25997 7.45996 7.43997 7.45996H12.57C14.75 7.45996 15.29 8.63996 15.56 9.90996L15.84 11.23H16.58C16.87 11.23 17.12 11.48 17.12 11.78Z" fill="#07090F"/>
<path d="M17.43 15.9099C17.32 14.7099 17 13.4199 14.66 13.4199H5.33999C2.99999 13.4199 2.67999 14.7099 2.56999 15.9099L2.15999 20.3599C2.10999 20.9099 2.28999 21.4699 2.66999 21.8899C3.05999 22.3099 3.59999 22.5499 4.18999 22.5499H5.55999C6.73999 22.5499 6.96999 21.8699 7.11999 21.4299L7.26999 20.9899C7.43999 20.4899 7.47999 20.3599 8.13999 20.3599H11.88C12.54 20.3599 12.56 20.4299 12.75 20.9899L12.9 21.4299C13.05 21.8799 13.27 22.5499 14.46 22.5499H15.83C16.41 22.5499 16.96 22.3099 17.35 21.8899C17.73 21.4699 17.91 20.9199 17.86 20.3599L17.43 15.9099ZM7.80999 17.4299H5.61999C5.31999 17.4299 5.06999 17.1799 5.06999 16.8799C5.06999 16.5799 5.31999 16.3299 5.61999 16.3299H7.80999C8.10999 16.3299 8.35999 16.5799 8.35999 16.8799C8.35999 17.1799 8.10999 17.4299 7.80999 17.4299ZM14.38 17.4299H12.19C11.89 17.4299 11.64 17.1799 11.64 16.8799C11.64 16.5799 11.89 16.3299 12.19 16.3299H14.38C14.68 16.3299 14.93 16.5799 14.93 16.8799C14.93 17.1799 14.68 17.4299 14.38 17.4299Z" fill="#07090F"/>
</svg>
