<svg width="24" height="24" viewBox="0 0 24 24" fill="none" xmlns="http://www.w3.org/2000/svg">
<path d="M8.93 2H5.02C3 2 2 3 2 5.02V8.94C2 11 3 12 5.02 11.95H8.94C11 12 12 11 11.95 8.93V5.02C12 3 11 2 8.93 2ZM9.01 9.76C8.33 9.76 7.67 9.5 7.12 9.04C6.5 9.49 5.75 9.76 4.94 9.76C4.53 9.76 4.19 9.42 4.19 9.01C4.19 8.6 4.53 8.26 4.94 8.26C5.96 8.26 6.81 7.56 7.12 6.6H4.94C4.53 6.6 4.19 6.26 4.19 5.85C4.19 5.44 4.53 5.1 4.94 5.1H6.23C6.27 4.72 6.58 4.42 6.97 4.42C7.36 4.42 7.67 4.72 7.71 5.1H7.97C7.98 5.1 7.99 5.1 7.99 5.1H8.01H9C9.41 5.1 9.75 5.44 9.75 5.85C9.75 6.26 9.42 6.6 9 6.6H8.67C8.58 7.08 8.39 7.53 8.14 7.94C8.41 8.14 8.7 8.26 9.01 8.26C9.42 8.26 9.76 8.6 9.76 9.01C9.76 9.42 9.42 9.76 9.01 9.76Z" fill="#07090F"/>
<path d="M9 22.75C4.73 22.75 1.25 19.27 1.25 15C1.25 14.59 1.59 14.25 2 14.25C2.41 14.25 2.75 14.59 2.75 15C2.75 17.96 4.81 20.44 7.58 21.09L7.31 20.64C7.1 20.28 7.21 19.82 7.57 19.61C7.92 19.4 8.39 19.51 8.6 19.87L9.65 21.62C9.79 21.85 9.79 22.14 9.66 22.37C9.52 22.6 9.27 22.75 9 22.75Z" fill="#07090F"/>
<path d="M22.0001 9.75C21.5901 9.75 21.2501 9.41 21.2501 9C21.2501 6.04 19.1901 3.56 16.4201 2.91L16.6901 3.36C16.9001 3.72 16.7901 4.18 16.4301 4.39C16.0801 4.6 15.6101 4.49 15.4001 4.13L14.3501 2.38C14.2101 2.15 14.2101 1.86 14.3401 1.63C14.4801 1.4 14.7301 1.25 15.0001 1.25C19.2701 1.25 22.7501 4.73 22.7501 9C22.7501 9.41 22.4101 9.75 22.0001 9.75Z" fill="#07090F"/>
<path d="M16.92 11.8501C14.12 11.8501 11.84 14.1201 11.84 16.9301C11.84 19.7301 14.11 22.0101 16.92 22.0101C19.72 22.0101 22 19.7401 22 16.9301C22 14.1201 19.73 11.8501 16.92 11.8501ZM19.4 19.3401C19.03 19.5201 18.58 19.3801 18.39 19.0001L18.22 18.6601H15.63L15.46 19.0001C15.33 19.2601 15.06 19.4101 14.79 19.4101C14.68 19.4101 14.56 19.3801 14.46 19.3301C14.09 19.1401 13.94 18.6901 14.12 18.3201L16.26 14.0501C16.39 13.8001 16.65 13.6401 16.93 13.6401C17.21 13.6401 17.47 13.8001 17.6 14.0601L19.74 18.3301C19.92 18.7001 19.77 19.1501 19.4 19.3401Z" fill="#07090F"/>
<path d="M16.38 17.1601H17.47L16.92 16.0701L16.38 17.1601Z" fill="#07090F"/>
</svg>
