<svg width="24" height="24" viewBox="0 0 24 24" fill="none" xmlns="http://www.w3.org/2000/svg">
<path d="M1.22986 21.6817L1.98986 20.9217C1.58986 20.3217 1.35986 19.6017 1.35986 18.8317C1.35986 16.7217 3.06986 15.0117 5.17986 15.0117C7.28986 15.0117 8.99986 16.7117 8.99986 18.8217C8.99986 20.9317 7.28986 22.6417 5.17986 22.6417C4.40986 22.6417 3.68986 22.4117 3.08986 22.0117L2.32986 22.7717C2.16986 22.9217 1.96986 23.0017 1.76986 23.0017C1.56986 23.0017 1.36986 22.9217 1.21986 22.7717C0.919859 22.4717 0.919859 21.9817 1.22986 21.6817Z" fill="#07090F"/>
<path d="M21.5 12.5H19C17.9 12.5 17 13.4 17 14.5C17 15.6 17.9 16.5 19 16.5H21.5C21.78 16.5 22 16.28 22 16V13C22 12.72 21.78 12.5 21.5 12.5Z" fill="#07090F"/>
<path d="M16.5302 5.39997C16.8302 5.68997 16.5802 6.13997 16.1602 6.13997L7.88021 6.12997C7.40021 6.12997 7.16021 5.54997 7.50021 5.20997L9.25021 3.44997C10.7302 1.97997 13.1202 1.97997 14.6002 3.44997L16.4902 5.35997C16.5002 5.36997 16.5202 5.38997 16.5302 5.39997Z" fill="#07090F"/>
<path d="M21.8699 18.66C21.2599 20.72 19.4999 22 17.0999 22H10.5999C10.2099 22 9.95986 21.57 10.1199 21.21C10.4199 20.51 10.6099 19.72 10.6099 19C10.6099 15.97 8.13986 13.5 5.10986 13.5C4.34986 13.5 3.60986 13.66 2.92986 13.96C2.55986 14.12 2.10986 13.87 2.10986 13.47V12C2.10986 9.28 3.74986 7.38 6.29986 7.06C6.54986 7.02 6.81986 7 7.09986 7H17.0999C17.3599 7 17.6099 7.01 17.8499 7.05C19.8699 7.28 21.3299 8.51 21.8699 10.34C21.9699 10.67 21.7299 11 21.3899 11H19.0999C16.9299 11 15.2099 12.98 15.6799 15.23C16.0099 16.87 17.5299 18 19.1999 18H21.3899C21.7399 18 21.9699 18.34 21.8699 18.66Z" fill="#07090F"/>
</svg>
