<svg width="16" height="16" viewBox="0 0 16 16" fill="none" xmlns="http://www.w3.org/2000/svg">
<path d="M8.00004 1.3335C4.32671 1.3335 1.33337 4.32683 1.33337 8.00016C1.33337 11.6735 4.32671 14.6668 8.00004 14.6668C11.6734 14.6668 14.6667 11.6735 14.6667 8.00016C14.6667 4.32683 11.6734 1.3335 8.00004 1.3335ZM10.24 9.5335C10.4334 9.72683 10.4334 10.0468 10.24 10.2402C10.14 10.3402 10.0134 10.3868 9.88671 10.3868C9.76004 10.3868 9.63337 10.3402 9.53337 10.2402L8.00004 8.70683L6.46671 10.2402C6.36671 10.3402 6.24004 10.3868 6.11337 10.3868C5.98671 10.3868 5.86004 10.3402 5.76004 10.2402C5.56671 10.0468 5.56671 9.72683 5.76004 9.5335L7.29337 8.00016L5.76004 6.46683C5.56671 6.2735 5.56671 5.9535 5.76004 5.76016C5.95337 5.56683 6.27337 5.56683 6.46671 5.76016L8.00004 7.2935L9.53337 5.76016C9.72671 5.56683 10.0467 5.56683 10.24 5.76016C10.4334 5.9535 10.4334 6.2735 10.24 6.46683L8.70671 8.00016L10.24 9.5335Z" fill="#FF4530"/>
</svg>
